<svg data-art-category="documentary" xmlns="http://www.w3.org/2000/svg" viewBox="0 0 640 360" preserveAspectRatio="xMidYMid slice">
<defs><linearGradient id="bg" x1="0" y1="0" x2="1" y2="1"><stop stop-color="#1c170c"/><stop offset=".52" stop-color="#0b1530"/><stop offset="1" stop-color="#02040d"/></linearGradient><radialGradient id="r" cx="78%" cy="22%" r="70%"><stop stop-color="#f7c873" stop-opacity=".52"/><stop offset=".45" stop-color="#5ecbff" stop-opacity=".18"/><stop offset="1" stop-color="#000" stop-opacity="0"/></radialGradient><linearGradient id="g" x1="0" y1="0" x2="1" y2="0"><stop stop-color="#f7c873"/><stop offset="1" stop-color="#5ecbff"/></linearGradient><filter id="gl"><feGaussianBlur stdDeviation="5" result="b"/><feMerge><feMergeNode in="b"/><feMergeNode in="SourceGraphic"/></feMerge></filter></defs>
<rect width="640" height="360" fill="url(#bg)"/><rect width="640" height="360" fill="url(#r)"/>
<g opacity=".9"><path d="M58 238 C 229 179, 368 12, 527 231" stroke="#f7c873" stroke-opacity="0.30" stroke-width="3" fill="none"/><path d="M18 145 C 288 334, 464 130, 637 95" stroke="#f7c873" stroke-opacity="0.36" stroke-width="2" fill="none"/><path d="M86 81 C 240 255, 330 263, 668 62" stroke="#5ecbff" stroke-opacity="0.32" stroke-width="2" fill="none"/><path d="M-80 93 C 217 274, 476 84, 619 185" stroke="#5ecbff" stroke-opacity="0.21" stroke-width="2" fill="none"/><path d="M150 115 C 227 320, 407 240, 579 213" stroke="#f7c873" stroke-opacity="0.37" stroke-width="1.5" fill="none"/><path d="M43 231 C 185 95, 502 268, 576 62" stroke="#5ecbff" stroke-opacity="0.36" stroke-width="2" fill="none"/></g><g><circle cx="118" cy="142" r="1" fill="#f7c873" opacity="0.25"/><circle cx="87" cy="81" r="1" fill="#5ecbff" opacity="0.28"/><circle cx="438" cy="96" r="2" fill="#5ecbff" opacity="0.29"/><circle cx="576" cy="76" r="2" fill="#5ecbff" opacity="0.13"/><circle cx="574" cy="54" r="1" fill="#f7c873" opacity="0.17"/><circle cx="340" cy="65" r="2" fill="#f7c873" opacity="0.20"/><circle cx="239" cy="246" r="2" fill="#f7c873" opacity="0.16"/><circle cx="99" cy="267" r="1.5" fill="#ffffff" opacity="0.32"/><circle cx="387" cy="208" r="2" fill="#ffffff" opacity="0.19"/><circle cx="483" cy="100" r="2" fill="#5ecbff" opacity="0.36"/><circle cx="124" cy="128" r="2" fill="#f7c873" opacity="0.16"/><circle cx="46" cy="292" r="1.5" fill="#5ecbff" opacity="0.28"/><circle cx="148" cy="114" r="2" fill="#f7c873" opacity="0.17"/><circle cx="531" cy="121" r="2" fill="#f7c873" opacity="0.14"/><circle cx="575" cy="204" r="1.5" fill="#f7c873" opacity="0.21"/><circle cx="411" cy="76" r="1.5" fill="#5ecbff" opacity="0.23"/><circle cx="223" cy="176" r="1.5" fill="#f7c873" opacity="0.26"/><circle cx="306" cy="245" r="1.5" fill="#5ecbff" opacity="0.36"/><circle cx="558" cy="138" r="1" fill="#5ecbff" opacity="0.30"/><circle cx="269" cy="234" r="1.5" fill="#f7c873" opacity="0.26"/><circle cx="340" cy="66" r="1" fill="#5ecbff" opacity="0.13"/><circle cx="145" cy="252" r="1.5" fill="#5ecbff" opacity="0.29"/><circle cx="371" cy="266" r="1" fill="#ffffff" opacity="0.17"/><circle cx="483" cy="295" r="1" fill="#ffffff" opacity="0.37"/><circle cx="293" cy="190" r="1.5" fill="#f7c873" opacity="0.29"/><circle cx="234" cy="67" r="1.5" fill="#f7c873" opacity="0.30"/><circle cx="268" cy="207" r="1.5" fill="#f7c873" opacity="0.33"/><circle cx="378" cy="280" r="1.5" fill="#f7c873" opacity="0.25"/><circle cx="512" cy="56" r="1.5" fill="#5ecbff" opacity="0.28"/><circle cx="203" cy="50" r="1" fill="#ffffff" opacity="0.13"/><circle cx="285" cy="152" r="1" fill="#ffffff" opacity="0.14"/><circle cx="317" cy="167" r="1" fill="#5ecbff" opacity="0.15"/></g>
<g transform="translate(402 44) scale(1.65)" fill="none" stroke="url(#g)" stroke-width="4" stroke-linecap="round" stroke-linejoin="round" opacity=".62" filter="url(#gl)"><path d="M48 36h48v36H48z"/><path d="M58 36l8 36M76 36l8 36"/></g>
<g transform="translate(44 42)"><rect width="104" height="104" rx="30" fill="#ffffff" fill-opacity=".08" stroke="#ffffff" stroke-opacity=".14"/><text x="52" y="66" text-anchor="middle" font-family="Inter,Arial,sans-serif" font-size="36" font-weight="800" fill="url(#g)">AA</text></g>
<g opacity=".36" fill="none" stroke="#fff"><circle cx="520" cy="118" r="92"/><circle cx="520" cy="118" r="58"/><circle cx="520" cy="118" r="22"/></g>
<rect y="200" width="640" height="160" fill="url(#fade)" opacity=".0"/>
<rect y="188" width="640" height="172" fill="#02040d" opacity=".58"/>
<text x="44" y="264" font-family="Inter,Arial,sans-serif" font-size="38" font-weight="850" fill="#fff" letter-spacing="-.8">ARD alpha</text>
<text x="44" y="304" font-family="Inter,Arial,sans-serif" font-size="18" font-weight="650" fill="#f7c873">Duitsland · Documentary</text>
<path d="M44 326h200" stroke="url(#g)" stroke-width="4" stroke-linecap="round" opacity=".88"/>
</svg>