<svg data-art-category="public" xmlns="http://www.w3.org/2000/svg" viewBox="0 0 640 360" preserveAspectRatio="xMidYMid slice">
<defs><linearGradient id="bg" x1="0" y1="0" x2="1" y2="1"><stop stop-color="#07152b"/><stop offset=".52" stop-color="#0b1530"/><stop offset="1" stop-color="#02040d"/></linearGradient><radialGradient id="r" cx="78%" cy="22%" r="70%"><stop stop-color="#38d8ff" stop-opacity=".52"/><stop offset=".45" stop-color="#7c3dff" stop-opacity=".18"/><stop offset="1" stop-color="#000" stop-opacity="0"/></radialGradient><linearGradient id="g" x1="0" y1="0" x2="1" y2="0"><stop stop-color="#38d8ff"/><stop offset="1" stop-color="#7c3dff"/></linearGradient><filter id="gl"><feGaussianBlur stdDeviation="5" result="b"/><feMerge><feMergeNode in="b"/><feMergeNode in="SourceGraphic"/></feMerge></filter></defs>
<rect width="640" height="360" fill="url(#bg)"/><rect width="640" height="360" fill="url(#r)"/>
<g opacity=".9"><path d="M20 116 C 188 116, 501 336, 667 171" stroke="#7c3dff" stroke-opacity="0.34" stroke-width="1.5" fill="none"/><path d="M84 129 C 185 328, 505 189, 666 265" stroke="#7c3dff" stroke-opacity="0.27" stroke-width="3" fill="none"/><path d="M152 129 C 171 188, 469 318, 549 76" stroke="#7c3dff" stroke-opacity="0.28" stroke-width="3" fill="none"/><path d="M-13 150 C 246 18, 461 110, 631 155" stroke="#7c3dff" stroke-opacity="0.27" stroke-width="1.5" fill="none"/><path d="M-60 127 C 170 205, 463 348, 607 264" stroke="#38d8ff" stroke-opacity="0.28" stroke-width="2" fill="none"/><path d="M46 189 C 212 349, 485 216, 551 83" stroke="#38d8ff" stroke-opacity="0.27" stroke-width="1.5" fill="none"/></g><g><circle cx="79" cy="275" r="2" fill="#7c3dff" opacity="0.21"/><circle cx="564" cy="112" r="1" fill="#ffffff" opacity="0.19"/><circle cx="326" cy="56" r="1" fill="#7c3dff" opacity="0.15"/><circle cx="276" cy="255" r="1" fill="#ffffff" opacity="0.22"/><circle cx="121" cy="195" r="1" fill="#38d8ff" opacity="0.29"/><circle cx="433" cy="264" r="2" fill="#ffffff" opacity="0.14"/><circle cx="52" cy="286" r="2" fill="#ffffff" opacity="0.16"/><circle cx="313" cy="142" r="2" fill="#38d8ff" opacity="0.34"/><circle cx="303" cy="272" r="1.5" fill="#38d8ff" opacity="0.36"/><circle cx="462" cy="228" r="2" fill="#ffffff" opacity="0.23"/><circle cx="254" cy="268" r="1.5" fill="#ffffff" opacity="0.20"/><circle cx="504" cy="82" r="1.5" fill="#38d8ff" opacity="0.25"/><circle cx="517" cy="175" r="1" fill="#38d8ff" opacity="0.27"/><circle cx="139" cy="147" r="2" fill="#38d8ff" opacity="0.12"/><circle cx="425" cy="242" r="1.5" fill="#7c3dff" opacity="0.31"/><circle cx="72" cy="250" r="1.5" fill="#ffffff" opacity="0.24"/><circle cx="219" cy="142" r="1" fill="#38d8ff" opacity="0.24"/><circle cx="53" cy="214" r="1" fill="#ffffff" opacity="0.17"/><circle cx="268" cy="94" r="2" fill="#ffffff" opacity="0.17"/><circle cx="73" cy="288" r="1.5" fill="#ffffff" opacity="0.15"/><circle cx="239" cy="202" r="1" fill="#ffffff" opacity="0.34"/><circle cx="393" cy="281" r="2" fill="#7c3dff" opacity="0.33"/><circle cx="557" cy="46" r="1" fill="#7c3dff" opacity="0.25"/><circle cx="551" cy="273" r="2" fill="#ffffff" opacity="0.29"/><circle cx="375" cy="160" r="2" fill="#ffffff" opacity="0.33"/><circle cx="453" cy="261" r="2" fill="#7c3dff" opacity="0.14"/><circle cx="235" cy="229" r="1" fill="#38d8ff" opacity="0.22"/><circle cx="192" cy="151" r="1" fill="#ffffff" opacity="0.19"/><circle cx="386" cy="248" r="1" fill="#38d8ff" opacity="0.19"/><circle cx="68" cy="108" r="2" fill="#7c3dff" opacity="0.21"/><circle cx="363" cy="235" r="1.5" fill="#7c3dff" opacity="0.36"/><circle cx="215" cy="66" r="2" fill="#ffffff" opacity="0.28"/></g>
<g transform="translate(402 44) scale(1.65)" fill="none" stroke="url(#g)" stroke-width="4" stroke-linecap="round" stroke-linejoin="round" opacity=".62" filter="url(#gl)"><path d="M50 31h44v44H50z"/><path d="M58 41h27M58 51h27M58 61h18"/></g>
<g transform="translate(44 42)"><rect width="104" height="104" rx="30" fill="#ffffff" fill-opacity=".08" stroke="#ffffff" stroke-opacity=".14"/><text x="52" y="66" text-anchor="middle" font-family="Inter,Arial,sans-serif" font-size="36" font-weight="800" fill="url(#g)">BFN</text></g>
<g opacity=".36" fill="none" stroke="#fff"><circle cx="520" cy="118" r="92"/><circle cx="520" cy="118" r="58"/><circle cx="520" cy="118" r="22"/></g>
<rect y="200" width="640" height="160" fill="url(#fade)" opacity=".0"/>
<rect y="188" width="640" height="172" fill="#02040d" opacity=".58"/>
<text x="44" y="264" font-family="Inter,Arial,sans-serif" font-size="38" font-weight="850" fill="#fff" letter-spacing="-.8">BR Fernsehen Nord</text>
<text x="44" y="304" font-family="Inter,Arial,sans-serif" font-size="18" font-weight="650" fill="#38d8ff">Duitsland · News</text>
<path d="M44 326h200" stroke="url(#g)" stroke-width="4" stroke-linecap="round" opacity=".88"/>
</svg>