<svg data-art-category="news" xmlns="http://www.w3.org/2000/svg" viewBox="0 0 640 360" preserveAspectRatio="xMidYMid slice">
<defs><linearGradient id="bg" x1="0" y1="0" x2="1" y2="1"><stop stop-color="#07152b"/><stop offset=".52" stop-color="#0b1530"/><stop offset="1" stop-color="#02040d"/></linearGradient><radialGradient id="r" cx="78%" cy="22%" r="70%"><stop stop-color="#38d8ff" stop-opacity=".52"/><stop offset=".45" stop-color="#7c3dff" stop-opacity=".18"/><stop offset="1" stop-color="#000" stop-opacity="0"/></radialGradient><linearGradient id="g" x1="0" y1="0" x2="1" y2="0"><stop stop-color="#38d8ff"/><stop offset="1" stop-color="#7c3dff"/></linearGradient><filter id="gl"><feGaussianBlur stdDeviation="5" result="b"/><feMerge><feMergeNode in="b"/><feMergeNode in="SourceGraphic"/></feMerge></filter></defs>
<rect width="640" height="360" fill="url(#bg)"/><rect width="640" height="360" fill="url(#r)"/>
<g opacity=".9"><path d="M97 74 C 232 72, 419 67, 607 231" stroke="#7c3dff" stroke-opacity="0.24" stroke-width="3" fill="none"/><path d="M-47 232 C 203 61, 369 357, 645 129" stroke="#7c3dff" stroke-opacity="0.26" stroke-width="1.5" fill="none"/><path d="M-59 205 C 220 281, 360 180, 587 164" stroke="#38d8ff" stroke-opacity="0.32" stroke-width="2" fill="none"/><path d="M-41 79 C 187 349, 458 182, 575 246" stroke="#7c3dff" stroke-opacity="0.24" stroke-width="3" fill="none"/><path d="M-52 221 C 260 -19, 458 162, 643 107" stroke="#7c3dff" stroke-opacity="0.17" stroke-width="2" fill="none"/><path d="M20 128 C 213 306, 363 360, 587 286" stroke="#38d8ff" stroke-opacity="0.17" stroke-width="3" fill="none"/></g><g><circle cx="124" cy="197" r="2" fill="#7c3dff" opacity="0.30"/><circle cx="143" cy="115" r="1.5" fill="#7c3dff" opacity="0.36"/><circle cx="565" cy="192" r="2" fill="#ffffff" opacity="0.21"/><circle cx="399" cy="58" r="2" fill="#38d8ff" opacity="0.23"/><circle cx="293" cy="209" r="2" fill="#38d8ff" opacity="0.27"/><circle cx="349" cy="137" r="1.5" fill="#ffffff" opacity="0.28"/><circle cx="312" cy="228" r="1" fill="#ffffff" opacity="0.37"/><circle cx="558" cy="243" r="1" fill="#38d8ff" opacity="0.25"/><circle cx="393" cy="206" r="2" fill="#ffffff" opacity="0.36"/><circle cx="490" cy="46" r="1.5" fill="#ffffff" opacity="0.22"/><circle cx="252" cy="122" r="2" fill="#38d8ff" opacity="0.35"/><circle cx="42" cy="222" r="1" fill="#ffffff" opacity="0.20"/><circle cx="406" cy="140" r="1" fill="#ffffff" opacity="0.22"/><circle cx="473" cy="196" r="1.5" fill="#7c3dff" opacity="0.31"/><circle cx="261" cy="198" r="2" fill="#7c3dff" opacity="0.17"/><circle cx="507" cy="98" r="1.5" fill="#7c3dff" opacity="0.15"/><circle cx="437" cy="198" r="2" fill="#ffffff" opacity="0.23"/><circle cx="314" cy="255" r="2" fill="#ffffff" opacity="0.36"/><circle cx="44" cy="293" r="2" fill="#38d8ff" opacity="0.26"/><circle cx="385" cy="49" r="1" fill="#ffffff" opacity="0.36"/><circle cx="312" cy="152" r="1.5" fill="#38d8ff" opacity="0.27"/><circle cx="289" cy="169" r="1.5" fill="#ffffff" opacity="0.35"/><circle cx="102" cy="131" r="1.5" fill="#7c3dff" opacity="0.35"/><circle cx="448" cy="288" r="2" fill="#ffffff" opacity="0.18"/><circle cx="561" cy="68" r="1.5" fill="#ffffff" opacity="0.22"/><circle cx="438" cy="50" r="1" fill="#7c3dff" opacity="0.16"/><circle cx="264" cy="129" r="1" fill="#7c3dff" opacity="0.19"/><circle cx="518" cy="243" r="2" fill="#7c3dff" opacity="0.27"/><circle cx="485" cy="273" r="2" fill="#7c3dff" opacity="0.17"/><circle cx="126" cy="269" r="1.5" fill="#ffffff" opacity="0.38"/><circle cx="557" cy="117" r="2" fill="#ffffff" opacity="0.24"/><circle cx="158" cy="186" r="2" fill="#38d8ff" opacity="0.25"/></g>
<g transform="translate(402 44) scale(1.65)" fill="none" stroke="url(#g)" stroke-width="4" stroke-linecap="round" stroke-linejoin="round" opacity=".62" filter="url(#gl)"><path d="M50 31h44v44H50z"/><path d="M58 41h27M58 51h27M58 61h18"/></g>
<g transform="translate(44 42)"><rect width="104" height="104" rx="30" fill="#ffffff" fill-opacity=".08" stroke="#ffffff" stroke-opacity=".14"/><text x="52" y="66" text-anchor="middle" font-family="Inter,Arial,sans-serif" font-size="36" font-weight="800" fill="url(#g)">CN</text></g>
<g opacity=".36" fill="none" stroke="#fff"><circle cx="520" cy="118" r="92"/><circle cx="520" cy="118" r="58"/><circle cx="520" cy="118" r="22"/></g>
<rect y="200" width="640" height="160" fill="url(#fade)" opacity=".0"/>
<rect y="188" width="640" height="172" fill="#02040d" opacity=".58"/>
<text x="44" y="264" font-family="Inter,Arial,sans-serif" font-size="38" font-weight="850" fill="#fff" letter-spacing="-.8">CBS News</text>
<text x="44" y="304" font-family="Inter,Arial,sans-serif" font-size="18" font-weight="650" fill="#38d8ff">Verenigde Staten · News</text>
<path d="M44 326h200" stroke="url(#g)" stroke-width="4" stroke-linecap="round" opacity=".88"/>
</svg>