<svg data-art-category="world" xmlns="http://www.w3.org/2000/svg" viewBox="0 0 640 360" preserveAspectRatio="xMidYMid slice">
<defs><linearGradient id="bg" x1="0" y1="0" x2="1" y2="1"><stop stop-color="#110924"/><stop offset=".52" stop-color="#0b1530"/><stop offset="1" stop-color="#02040d"/></linearGradient><radialGradient id="r" cx="78%" cy="22%" r="70%"><stop stop-color="#b28cff" stop-opacity=".52"/><stop offset=".45" stop-color="#ff5cc8" stop-opacity=".18"/><stop offset="1" stop-color="#000" stop-opacity="0"/></radialGradient><linearGradient id="g" x1="0" y1="0" x2="1" y2="0"><stop stop-color="#b28cff"/><stop offset="1" stop-color="#ff5cc8"/></linearGradient><filter id="gl"><feGaussianBlur stdDeviation="5" result="b"/><feMerge><feMergeNode in="b"/><feMergeNode in="SourceGraphic"/></feMerge></filter></defs>
<rect width="640" height="360" fill="url(#bg)"/><rect width="640" height="360" fill="url(#r)"/>
<g opacity=".9"><path d="M79 76 C 264 249, 390 63, 608 203" stroke="#ff5cc8" stroke-opacity="0.29" stroke-width="3" fill="none"/><path d="M56 200 C 297 -17, 481 48, 549 126" stroke="#b28cff" stroke-opacity="0.37" stroke-width="2" fill="none"/><path d="M85 143 C 199 268, 333 354, 610 243" stroke="#b28cff" stroke-opacity="0.27" stroke-width="1.5" fill="none"/><path d="M-55 103 C 198 248, 429 265, 600 149" stroke="#ff5cc8" stroke-opacity="0.25" stroke-width="1.5" fill="none"/><path d="M35 87 C 256 52, 503 233, 720 138" stroke="#ff5cc8" stroke-opacity="0.18" stroke-width="1.5" fill="none"/><path d="M76 128 C 261 306, 488 340, 641 262" stroke="#b28cff" stroke-opacity="0.18" stroke-width="3" fill="none"/></g><g><circle cx="250" cy="278" r="1.5" fill="#b28cff" opacity="0.26"/><circle cx="518" cy="149" r="1" fill="#ffffff" opacity="0.13"/><circle cx="237" cy="84" r="1" fill="#ff5cc8" opacity="0.15"/><circle cx="96" cy="144" r="2" fill="#b28cff" opacity="0.28"/><circle cx="402" cy="230" r="2" fill="#ff5cc8" opacity="0.30"/><circle cx="496" cy="123" r="1" fill="#ffffff" opacity="0.13"/><circle cx="486" cy="291" r="2" fill="#ff5cc8" opacity="0.21"/><circle cx="210" cy="259" r="1.5" fill="#ff5cc8" opacity="0.35"/><circle cx="509" cy="191" r="1.5" fill="#b28cff" opacity="0.26"/><circle cx="333" cy="94" r="1.5" fill="#ffffff" opacity="0.14"/><circle cx="303" cy="214" r="1" fill="#ff5cc8" opacity="0.20"/><circle cx="479" cy="76" r="2" fill="#ffffff" opacity="0.23"/><circle cx="391" cy="260" r="1" fill="#ff5cc8" opacity="0.19"/><circle cx="270" cy="225" r="1" fill="#b28cff" opacity="0.30"/><circle cx="247" cy="124" r="2" fill="#ff5cc8" opacity="0.19"/><circle cx="92" cy="111" r="2" fill="#b28cff" opacity="0.26"/><circle cx="361" cy="138" r="1.5" fill="#ff5cc8" opacity="0.20"/><circle cx="240" cy="171" r="1.5" fill="#ffffff" opacity="0.21"/><circle cx="165" cy="167" r="1" fill="#ffffff" opacity="0.25"/><circle cx="329" cy="150" r="1.5" fill="#b28cff" opacity="0.34"/><circle cx="335" cy="154" r="1.5" fill="#b28cff" opacity="0.31"/><circle cx="542" cy="238" r="2" fill="#b28cff" opacity="0.36"/><circle cx="484" cy="127" r="1" fill="#b28cff" opacity="0.17"/><circle cx="405" cy="174" r="1.5" fill="#ffffff" opacity="0.25"/><circle cx="115" cy="96" r="1" fill="#ffffff" opacity="0.26"/><circle cx="156" cy="192" r="2" fill="#b28cff" opacity="0.13"/><circle cx="152" cy="208" r="1" fill="#ffffff" opacity="0.27"/><circle cx="229" cy="280" r="2" fill="#ff5cc8" opacity="0.14"/><circle cx="66" cy="176" r="2" fill="#ffffff" opacity="0.16"/><circle cx="324" cy="178" r="1" fill="#b28cff" opacity="0.24"/><circle cx="525" cy="154" r="1" fill="#b28cff" opacity="0.30"/><circle cx="480" cy="57" r="2" fill="#ff5cc8" opacity="0.22"/></g>
<g transform="translate(402 44) scale(1.65)" fill="none" stroke="url(#g)" stroke-width="4" stroke-linecap="round" stroke-linejoin="round" opacity=".62" filter="url(#gl)"><path d="M48 35h48v40H48z"/><path d="M60 35v40M84 35v40M48 47h48M48 63h48"/></g>
<g transform="translate(44 42)"><rect width="104" height="104" rx="30" fill="#ffffff" fill-opacity=".08" stroke="#ffffff" stroke-opacity=".14"/><text x="52" y="66" text-anchor="middle" font-family="Inter,Arial,sans-serif" font-size="36" font-weight="800" fill="url(#g)">EV</text></g>
<g opacity=".36" fill="none" stroke="#fff"><circle cx="520" cy="118" r="92"/><circle cx="520" cy="118" r="58"/><circle cx="520" cy="118" r="22"/></g>
<rect y="200" width="640" height="160" fill="url(#fade)" opacity=".0"/>
<rect y="188" width="640" height="172" fill="#02040d" opacity=".58"/>
<text x="44" y="264" font-family="Inter,Arial,sans-serif" font-size="38" font-weight="850" fill="#fff" letter-spacing="-.8">eVOD</text>
<text x="44" y="304" font-family="Inter,Arial,sans-serif" font-size="18" font-weight="650" fill="#b28cff">Zuid-Afrika · Film</text>
<path d="M44 326h200" stroke="url(#g)" stroke-width="4" stroke-linecap="round" opacity=".88"/>
</svg>