<svg data-art-category="news" xmlns="http://www.w3.org/2000/svg" viewBox="0 0 640 360" preserveAspectRatio="xMidYMid slice">
<defs><linearGradient id="bg" x1="0" y1="0" x2="1" y2="1"><stop stop-color="#07152b"/><stop offset=".52" stop-color="#0b1530"/><stop offset="1" stop-color="#02040d"/></linearGradient><radialGradient id="r" cx="78%" cy="22%" r="70%"><stop stop-color="#38d8ff" stop-opacity=".52"/><stop offset=".45" stop-color="#7c3dff" stop-opacity=".18"/><stop offset="1" stop-color="#000" stop-opacity="0"/></radialGradient><linearGradient id="g" x1="0" y1="0" x2="1" y2="0"><stop stop-color="#38d8ff"/><stop offset="1" stop-color="#7c3dff"/></linearGradient><filter id="gl"><feGaussianBlur stdDeviation="5" result="b"/><feMerge><feMergeNode in="b"/><feMergeNode in="SourceGraphic"/></feMerge></filter></defs>
<rect width="640" height="360" fill="url(#bg)"/><rect width="640" height="360" fill="url(#r)"/>
<g opacity=".9"><path d="M142 132 C 185 243, 388 248, 711 232" stroke="#7c3dff" stroke-opacity="0.19" stroke-width="2" fill="none"/><path d="M-13 194 C 279 88, 344 73, 527 196" stroke="#38d8ff" stroke-opacity="0.36" stroke-width="2" fill="none"/><path d="M77 127 C 252 292, 349 98, 641 166" stroke="#38d8ff" stroke-opacity="0.17" stroke-width="3" fill="none"/><path d="M78 230 C 281 213, 400 107, 656 141" stroke="#7c3dff" stroke-opacity="0.17" stroke-width="2" fill="none"/><path d="M60 249 C 176 135, 400 64, 521 214" stroke="#7c3dff" stroke-opacity="0.17" stroke-width="1.5" fill="none"/><path d="M12 101 C 297 184, 360 171, 620 112" stroke="#38d8ff" stroke-opacity="0.37" stroke-width="2" fill="none"/></g><g><circle cx="525" cy="148" r="1" fill="#7c3dff" opacity="0.12"/><circle cx="282" cy="198" r="1.5" fill="#7c3dff" opacity="0.34"/><circle cx="490" cy="83" r="1.5" fill="#ffffff" opacity="0.34"/><circle cx="269" cy="132" r="2" fill="#38d8ff" opacity="0.20"/><circle cx="578" cy="53" r="1" fill="#38d8ff" opacity="0.30"/><circle cx="164" cy="208" r="2" fill="#ffffff" opacity="0.27"/><circle cx="280" cy="276" r="1" fill="#ffffff" opacity="0.27"/><circle cx="135" cy="210" r="1.5" fill="#7c3dff" opacity="0.30"/><circle cx="545" cy="161" r="1" fill="#ffffff" opacity="0.16"/><circle cx="427" cy="251" r="2" fill="#7c3dff" opacity="0.30"/><circle cx="190" cy="111" r="2" fill="#7c3dff" opacity="0.14"/><circle cx="213" cy="179" r="2" fill="#ffffff" opacity="0.15"/><circle cx="190" cy="117" r="2" fill="#ffffff" opacity="0.27"/><circle cx="466" cy="188" r="1" fill="#38d8ff" opacity="0.26"/><circle cx="435" cy="247" r="2" fill="#38d8ff" opacity="0.15"/><circle cx="461" cy="161" r="1" fill="#7c3dff" opacity="0.33"/><circle cx="182" cy="226" r="1.5" fill="#38d8ff" opacity="0.24"/><circle cx="171" cy="152" r="1.5" fill="#ffffff" opacity="0.19"/><circle cx="334" cy="236" r="1" fill="#ffffff" opacity="0.36"/><circle cx="220" cy="148" r="1" fill="#ffffff" opacity="0.29"/><circle cx="466" cy="215" r="2" fill="#38d8ff" opacity="0.27"/><circle cx="349" cy="148" r="1.5" fill="#38d8ff" opacity="0.23"/><circle cx="273" cy="78" r="1.5" fill="#ffffff" opacity="0.22"/><circle cx="169" cy="209" r="1.5" fill="#7c3dff" opacity="0.18"/><circle cx="476" cy="198" r="2" fill="#38d8ff" opacity="0.27"/><circle cx="372" cy="144" r="1" fill="#ffffff" opacity="0.36"/><circle cx="463" cy="182" r="1" fill="#7c3dff" opacity="0.28"/><circle cx="425" cy="280" r="1.5" fill="#38d8ff" opacity="0.12"/><circle cx="261" cy="50" r="2" fill="#7c3dff" opacity="0.36"/><circle cx="292" cy="162" r="1.5" fill="#38d8ff" opacity="0.14"/><circle cx="275" cy="170" r="1.5" fill="#7c3dff" opacity="0.20"/><circle cx="530" cy="266" r="1" fill="#38d8ff" opacity="0.15"/></g>
<g transform="translate(402 44) scale(1.65)" fill="none" stroke="url(#g)" stroke-width="4" stroke-linecap="round" stroke-linejoin="round" opacity=".62" filter="url(#gl)"><path d="M50 31h44v44H50z"/><path d="M58 41h27M58 51h27M58 61h18"/></g>
<g transform="translate(44 42)"><rect width="104" height="104" rx="30" fill="#ffffff" fill-opacity=".08" stroke="#ffffff" stroke-opacity=".14"/><text x="52" y="66" text-anchor="middle" font-family="Inter,Arial,sans-serif" font-size="36" font-weight="800" fill="url(#g)">EU</text></g>
<g opacity=".36" fill="none" stroke="#fff"><circle cx="520" cy="118" r="92"/><circle cx="520" cy="118" r="58"/><circle cx="520" cy="118" r="22"/></g>
<rect y="200" width="640" height="160" fill="url(#fade)" opacity=".0"/>
<rect y="188" width="640" height="172" fill="#02040d" opacity=".58"/>
<text x="44" y="264" font-family="Inter,Arial,sans-serif" font-size="38" font-weight="850" fill="#fff" letter-spacing="-.8">Euronews на русском</text>
<text x="44" y="304" font-family="Inter,Arial,sans-serif" font-size="18" font-weight="650" fill="#38d8ff">Europa/Russischtalig · News</text>
<path d="M44 326h200" stroke="url(#g)" stroke-width="4" stroke-linecap="round" opacity=".88"/>
</svg>