<svg data-art-category="news" xmlns="http://www.w3.org/2000/svg" viewBox="0 0 640 360" preserveAspectRatio="xMidYMid slice">
<defs><linearGradient id="bg" x1="0" y1="0" x2="1" y2="1"><stop stop-color="#1a0c1e"/><stop offset=".52" stop-color="#0b1530"/><stop offset="1" stop-color="#02040d"/></linearGradient><radialGradient id="r" cx="78%" cy="22%" r="70%"><stop stop-color="#ff3f7f" stop-opacity=".52"/><stop offset=".45" stop-color="#ffb03a" stop-opacity=".18"/><stop offset="1" stop-color="#000" stop-opacity="0"/></radialGradient><linearGradient id="g" x1="0" y1="0" x2="1" y2="0"><stop stop-color="#ff3f7f"/><stop offset="1" stop-color="#ffb03a"/></linearGradient><filter id="gl"><feGaussianBlur stdDeviation="5" result="b"/><feMerge><feMergeNode in="b"/><feMergeNode in="SourceGraphic"/></feMerge></filter></defs>
<rect width="640" height="360" fill="url(#bg)"/><rect width="640" height="360" fill="url(#r)"/>
<g opacity=".9"><path d="M60 240 C 285 -4, 438 214, 667 204" stroke="#ffb03a" stroke-opacity="0.18" stroke-width="3" fill="none"/><path d="M43 177 C 236 128, 371 49, 693 136" stroke="#ff3f7f" stroke-opacity="0.25" stroke-width="2" fill="none"/><path d="M30 127 C 278 68, 446 99, 648 87" stroke="#ffb03a" stroke-opacity="0.37" stroke-width="3" fill="none"/><path d="M135 228 C 177 304, 519 309, 655 121" stroke="#ff3f7f" stroke-opacity="0.24" stroke-width="1.5" fill="none"/><path d="M-18 172 C 276 13, 409 295, 627 186" stroke="#ffb03a" stroke-opacity="0.22" stroke-width="1.5" fill="none"/><path d="M-73 171 C 203 76, 490 26, 527 125" stroke="#ff3f7f" stroke-opacity="0.31" stroke-width="1.5" fill="none"/></g><g><circle cx="172" cy="105" r="1" fill="#ffb03a" opacity="0.18"/><circle cx="235" cy="233" r="1.5" fill="#ff3f7f" opacity="0.38"/><circle cx="434" cy="79" r="1.5" fill="#ff3f7f" opacity="0.27"/><circle cx="405" cy="234" r="2" fill="#ffb03a" opacity="0.26"/><circle cx="299" cy="290" r="1.5" fill="#ff3f7f" opacity="0.31"/><circle cx="418" cy="144" r="1.5" fill="#ff3f7f" opacity="0.13"/><circle cx="442" cy="109" r="2" fill="#ffb03a" opacity="0.29"/><circle cx="397" cy="131" r="1.5" fill="#ffffff" opacity="0.33"/><circle cx="316" cy="277" r="1.5" fill="#ffb03a" opacity="0.25"/><circle cx="150" cy="149" r="2" fill="#ffffff" opacity="0.28"/><circle cx="206" cy="178" r="2" fill="#ff3f7f" opacity="0.33"/><circle cx="182" cy="256" r="1" fill="#ffb03a" opacity="0.22"/><circle cx="89" cy="200" r="1" fill="#ff3f7f" opacity="0.36"/><circle cx="346" cy="111" r="2" fill="#ffb03a" opacity="0.28"/><circle cx="101" cy="90" r="2" fill="#ffb03a" opacity="0.21"/><circle cx="93" cy="123" r="1.5" fill="#ffb03a" opacity="0.26"/><circle cx="340" cy="126" r="1" fill="#ffffff" opacity="0.20"/><circle cx="49" cy="196" r="1.5" fill="#ff3f7f" opacity="0.33"/><circle cx="136" cy="48" r="1" fill="#ffb03a" opacity="0.22"/><circle cx="358" cy="133" r="1" fill="#ff3f7f" opacity="0.23"/><circle cx="303" cy="114" r="1" fill="#ffb03a" opacity="0.37"/><circle cx="435" cy="135" r="2" fill="#ffffff" opacity="0.27"/><circle cx="165" cy="247" r="1" fill="#ffffff" opacity="0.15"/><circle cx="174" cy="155" r="1" fill="#ff3f7f" opacity="0.26"/><circle cx="254" cy="83" r="1" fill="#ff3f7f" opacity="0.31"/><circle cx="552" cy="285" r="1" fill="#ffffff" opacity="0.30"/><circle cx="388" cy="291" r="1.5" fill="#ff3f7f" opacity="0.23"/><circle cx="528" cy="269" r="1.5" fill="#ffffff" opacity="0.36"/><circle cx="291" cy="235" r="2" fill="#ffb03a" opacity="0.26"/><circle cx="550" cy="74" r="1.5" fill="#ffffff" opacity="0.24"/><circle cx="148" cy="232" r="2" fill="#ff3f7f" opacity="0.29"/><circle cx="189" cy="266" r="1" fill="#ff3f7f" opacity="0.23"/></g>
<g transform="translate(402 44) scale(1.65)" fill="none" stroke="url(#g)" stroke-width="4" stroke-linecap="round" stroke-linejoin="round" opacity=".62" filter="url(#gl)"><circle cx="72" cy="54" r="24"/><path d="M50 54h44M72 30c-12 10-12 38 0 48M72 30c12 10 12 38 0 48"/></g>
<g transform="translate(44 42)"><rect width="104" height="104" rx="30" fill="#ffffff" fill-opacity=".08" stroke="#ffffff" stroke-opacity=".14"/><text x="52" y="66" text-anchor="middle" font-family="Inter,Arial,sans-serif" font-size="36" font-weight="800" fill="url(#g)">GL</text></g>
<g opacity=".36" fill="none" stroke="#fff"><circle cx="520" cy="118" r="92"/><circle cx="520" cy="118" r="58"/><circle cx="520" cy="118" r="22"/></g>
<rect y="200" width="640" height="160" fill="url(#fade)" opacity=".0"/>
<rect y="188" width="640" height="172" fill="#02040d" opacity=".58"/>
<text x="44" y="264" font-family="Inter,Arial,sans-serif" font-size="38" font-weight="850" fill="#fff" letter-spacing="-.8">Globoplay</text>
<text x="44" y="304" font-family="Inter,Arial,sans-serif" font-size="18" font-weight="650" fill="#ff3f7f">Brazilië · Sport</text>
<path d="M44 326h200" stroke="url(#g)" stroke-width="4" stroke-linecap="round" opacity=".88"/>
</svg>