<svg data-art-category="news" xmlns="http://www.w3.org/2000/svg" viewBox="0 0 640 360" preserveAspectRatio="xMidYMid slice">
<defs><linearGradient id="bg" x1="0" y1="0" x2="1" y2="1"><stop stop-color="#07152b"/><stop offset=".52" stop-color="#0b1530"/><stop offset="1" stop-color="#02040d"/></linearGradient><radialGradient id="r" cx="78%" cy="22%" r="70%"><stop stop-color="#38d8ff" stop-opacity=".52"/><stop offset=".45" stop-color="#7c3dff" stop-opacity=".18"/><stop offset="1" stop-color="#000" stop-opacity="0"/></radialGradient><linearGradient id="g" x1="0" y1="0" x2="1" y2="0"><stop stop-color="#38d8ff"/><stop offset="1" stop-color="#7c3dff"/></linearGradient><filter id="gl"><feGaussianBlur stdDeviation="5" result="b"/><feMerge><feMergeNode in="b"/><feMergeNode in="SourceGraphic"/></feMerge></filter></defs>
<rect width="640" height="360" fill="url(#bg)"/><rect width="640" height="360" fill="url(#r)"/>
<g opacity=".9"><path d="M-39 242 C 245 186, 381 120, 644 189" stroke="#7c3dff" stroke-opacity="0.23" stroke-width="1.5" fill="none"/><path d="M-39 223 C 227 303, 371 86, 709 101" stroke="#7c3dff" stroke-opacity="0.38" stroke-width="3" fill="none"/><path d="M117 72 C 241 133, 499 94, 613 196" stroke="#7c3dff" stroke-opacity="0.22" stroke-width="3" fill="none"/><path d="M135 81 C 174 76, 345 1, 713 81" stroke="#7c3dff" stroke-opacity="0.30" stroke-width="3" fill="none"/><path d="M99 163 C 298 211, 355 17, 687 82" stroke="#7c3dff" stroke-opacity="0.36" stroke-width="3" fill="none"/><path d="M-49 141 C 170 225, 364 116, 548 65" stroke="#7c3dff" stroke-opacity="0.32" stroke-width="2" fill="none"/></g><g><circle cx="233" cy="160" r="1.5" fill="#7c3dff" opacity="0.26"/><circle cx="254" cy="215" r="1.5" fill="#ffffff" opacity="0.37"/><circle cx="394" cy="291" r="1" fill="#ffffff" opacity="0.31"/><circle cx="512" cy="268" r="1.5" fill="#38d8ff" opacity="0.23"/><circle cx="45" cy="122" r="1" fill="#ffffff" opacity="0.30"/><circle cx="90" cy="199" r="1" fill="#38d8ff" opacity="0.16"/><circle cx="445" cy="139" r="1" fill="#ffffff" opacity="0.35"/><circle cx="361" cy="190" r="1.5" fill="#38d8ff" opacity="0.30"/><circle cx="479" cy="190" r="2" fill="#38d8ff" opacity="0.26"/><circle cx="95" cy="225" r="2" fill="#7c3dff" opacity="0.12"/><circle cx="355" cy="78" r="1" fill="#38d8ff" opacity="0.33"/><circle cx="390" cy="161" r="2" fill="#ffffff" opacity="0.28"/><circle cx="402" cy="216" r="1.5" fill="#ffffff" opacity="0.24"/><circle cx="310" cy="258" r="1" fill="#7c3dff" opacity="0.19"/><circle cx="181" cy="115" r="1" fill="#7c3dff" opacity="0.16"/><circle cx="387" cy="272" r="1.5" fill="#ffffff" opacity="0.28"/><circle cx="172" cy="252" r="2" fill="#38d8ff" opacity="0.36"/><circle cx="58" cy="285" r="1.5" fill="#7c3dff" opacity="0.38"/><circle cx="316" cy="60" r="1.5" fill="#ffffff" opacity="0.34"/><circle cx="172" cy="144" r="1" fill="#ffffff" opacity="0.37"/><circle cx="336" cy="153" r="1" fill="#7c3dff" opacity="0.36"/><circle cx="296" cy="110" r="2" fill="#38d8ff" opacity="0.36"/><circle cx="187" cy="79" r="1.5" fill="#38d8ff" opacity="0.20"/><circle cx="558" cy="202" r="1" fill="#7c3dff" opacity="0.30"/><circle cx="329" cy="239" r="1.5" fill="#7c3dff" opacity="0.25"/><circle cx="481" cy="73" r="1" fill="#ffffff" opacity="0.20"/><circle cx="328" cy="266" r="2" fill="#7c3dff" opacity="0.21"/><circle cx="100" cy="292" r="1.5" fill="#ffffff" opacity="0.20"/><circle cx="289" cy="85" r="1.5" fill="#ffffff" opacity="0.23"/><circle cx="412" cy="46" r="1.5" fill="#38d8ff" opacity="0.25"/><circle cx="570" cy="203" r="1.5" fill="#7c3dff" opacity="0.16"/><circle cx="568" cy="152" r="1.5" fill="#7c3dff" opacity="0.16"/></g>
<g transform="translate(402 44) scale(1.65)" fill="none" stroke="url(#g)" stroke-width="4" stroke-linecap="round" stroke-linejoin="round" opacity=".62" filter="url(#gl)"><path d="M50 31h44v44H50z"/><path d="M58 41h27M58 51h27M58 61h18"/></g>
<g transform="translate(44 42)"><rect width="104" height="104" rx="30" fill="#ffffff" fill-opacity=".08" stroke="#ffffff" stroke-opacity=".14"/><text x="52" y="66" text-anchor="middle" font-family="Inter,Arial,sans-serif" font-size="36" font-weight="800" fill="url(#g)">K1</text></g>
<g opacity=".36" fill="none" stroke="#fff"><circle cx="520" cy="118" r="92"/><circle cx="520" cy="118" r="58"/><circle cx="520" cy="118" r="22"/></g>
<rect y="200" width="640" height="160" fill="url(#fade)" opacity=".0"/>
<rect y="188" width="640" height="172" fill="#02040d" opacity=".58"/>
<text x="44" y="264" font-family="Inter,Arial,sans-serif" font-size="38" font-weight="850" fill="#fff" letter-spacing="-.8">Kan 11</text>
<text x="44" y="304" font-family="Inter,Arial,sans-serif" font-size="18" font-weight="650" fill="#38d8ff">Israël · News</text>
<path d="M44 326h200" stroke="url(#g)" stroke-width="4" stroke-linecap="round" opacity=".88"/>
</svg>