<svg data-art-category="public" xmlns="http://www.w3.org/2000/svg" viewBox="0 0 640 360" preserveAspectRatio="xMidYMid slice">
<defs><linearGradient id="bg" x1="0" y1="0" x2="1" y2="1"><stop stop-color="#07152b"/><stop offset=".52" stop-color="#0b1530"/><stop offset="1" stop-color="#02040d"/></linearGradient><radialGradient id="r" cx="78%" cy="22%" r="70%"><stop stop-color="#38d8ff" stop-opacity=".52"/><stop offset=".45" stop-color="#7c3dff" stop-opacity=".18"/><stop offset="1" stop-color="#000" stop-opacity="0"/></radialGradient><linearGradient id="g" x1="0" y1="0" x2="1" y2="0"><stop stop-color="#38d8ff"/><stop offset="1" stop-color="#7c3dff"/></linearGradient><filter id="gl"><feGaussianBlur stdDeviation="5" result="b"/><feMerge><feMergeNode in="b"/><feMergeNode in="SourceGraphic"/></feMerge></filter></defs>
<rect width="640" height="360" fill="url(#bg)"/><rect width="640" height="360" fill="url(#r)"/>
<g opacity=".9"><path d="M50 87 C 184 220, 507 41, 603 214" stroke="#7c3dff" stroke-opacity="0.22" stroke-width="2" fill="none"/><path d="M79 100 C 291 284, 505 209, 585 179" stroke="#38d8ff" stroke-opacity="0.33" stroke-width="1.5" fill="none"/><path d="M60 164 C 215 111, 430 298, 669 148" stroke="#7c3dff" stroke-opacity="0.17" stroke-width="1.5" fill="none"/><path d="M-26 211 C 258 137, 487 210, 557 77" stroke="#38d8ff" stroke-opacity="0.24" stroke-width="3" fill="none"/><path d="M129 226 C 203 160, 422 296, 579 285" stroke="#7c3dff" stroke-opacity="0.38" stroke-width="3" fill="none"/><path d="M5 77 C 238 68, 444 155, 606 157" stroke="#7c3dff" stroke-opacity="0.19" stroke-width="1.5" fill="none"/></g><g><circle cx="307" cy="171" r="1" fill="#38d8ff" opacity="0.16"/><circle cx="470" cy="176" r="1" fill="#38d8ff" opacity="0.13"/><circle cx="87" cy="64" r="2" fill="#38d8ff" opacity="0.26"/><circle cx="463" cy="213" r="2" fill="#ffffff" opacity="0.31"/><circle cx="348" cy="137" r="1.5" fill="#ffffff" opacity="0.18"/><circle cx="577" cy="88" r="2" fill="#ffffff" opacity="0.20"/><circle cx="490" cy="248" r="1" fill="#38d8ff" opacity="0.25"/><circle cx="438" cy="206" r="1" fill="#ffffff" opacity="0.16"/><circle cx="97" cy="150" r="2" fill="#ffffff" opacity="0.37"/><circle cx="336" cy="45" r="1" fill="#7c3dff" opacity="0.14"/><circle cx="535" cy="149" r="2" fill="#ffffff" opacity="0.20"/><circle cx="354" cy="71" r="1.5" fill="#ffffff" opacity="0.37"/><circle cx="570" cy="191" r="2" fill="#7c3dff" opacity="0.29"/><circle cx="407" cy="213" r="1.5" fill="#38d8ff" opacity="0.20"/><circle cx="102" cy="134" r="1" fill="#ffffff" opacity="0.14"/><circle cx="178" cy="190" r="1.5" fill="#7c3dff" opacity="0.23"/><circle cx="340" cy="277" r="1" fill="#7c3dff" opacity="0.14"/><circle cx="100" cy="73" r="1.5" fill="#ffffff" opacity="0.17"/><circle cx="86" cy="79" r="1.5" fill="#38d8ff" opacity="0.25"/><circle cx="476" cy="256" r="2" fill="#ffffff" opacity="0.17"/><circle cx="238" cy="198" r="2" fill="#ffffff" opacity="0.37"/><circle cx="238" cy="214" r="1.5" fill="#38d8ff" opacity="0.30"/><circle cx="254" cy="144" r="1.5" fill="#38d8ff" opacity="0.37"/><circle cx="158" cy="140" r="1.5" fill="#7c3dff" opacity="0.36"/><circle cx="135" cy="46" r="1.5" fill="#7c3dff" opacity="0.37"/><circle cx="425" cy="53" r="1" fill="#7c3dff" opacity="0.31"/><circle cx="204" cy="207" r="1.5" fill="#38d8ff" opacity="0.28"/><circle cx="554" cy="249" r="2" fill="#7c3dff" opacity="0.20"/><circle cx="477" cy="98" r="1.5" fill="#ffffff" opacity="0.33"/><circle cx="207" cy="276" r="1.5" fill="#7c3dff" opacity="0.26"/><circle cx="96" cy="294" r="2" fill="#ffffff" opacity="0.19"/><circle cx="451" cy="56" r="2" fill="#38d8ff" opacity="0.34"/></g>
<g transform="translate(402 44) scale(1.65)" fill="none" stroke="url(#g)" stroke-width="4" stroke-linecap="round" stroke-linejoin="round" opacity=".62" filter="url(#gl)"><path d="M50 31h44v44H50z"/><path d="M58 41h27M58 51h27M58 61h18"/></g>
<g transform="translate(44 42)"><rect width="104" height="104" rx="30" fill="#ffffff" fill-opacity=".08" stroke="#ffffff" stroke-opacity=".14"/><text x="52" y="66" text-anchor="middle" font-family="Inter,Arial,sans-serif" font-size="36" font-weight="800" fill="url(#g)">MI</text></g>
<g opacity=".36" fill="none" stroke="#fff"><circle cx="520" cy="118" r="92"/><circle cx="520" cy="118" r="58"/><circle cx="520" cy="118" r="22"/></g>
<rect y="200" width="640" height="160" fill="url(#fade)" opacity=".0"/>
<rect y="188" width="640" height="172" fill="#02040d" opacity=".58"/>
<text x="44" y="264" font-family="Inter,Arial,sans-serif" font-size="38" font-weight="850" fill="#fff" letter-spacing="-.8">Mediaset Infinity</text>
<text x="44" y="304" font-family="Inter,Arial,sans-serif" font-size="18" font-weight="650" fill="#38d8ff">Italië · News</text>
<path d="M44 326h200" stroke="url(#g)" stroke-width="4" stroke-linecap="round" opacity=".88"/>
</svg>