<svg data-art-category="news" xmlns="http://www.w3.org/2000/svg" viewBox="0 0 640 360" preserveAspectRatio="xMidYMid slice">
<defs><linearGradient id="bg" x1="0" y1="0" x2="1" y2="1"><stop stop-color="#07152b"/><stop offset=".52" stop-color="#0b1530"/><stop offset="1" stop-color="#02040d"/></linearGradient><radialGradient id="r" cx="78%" cy="22%" r="70%"><stop stop-color="#38d8ff" stop-opacity=".52"/><stop offset=".45" stop-color="#7c3dff" stop-opacity=".18"/><stop offset="1" stop-color="#000" stop-opacity="0"/></radialGradient><linearGradient id="g" x1="0" y1="0" x2="1" y2="0"><stop stop-color="#38d8ff"/><stop offset="1" stop-color="#7c3dff"/></linearGradient><filter id="gl"><feGaussianBlur stdDeviation="5" result="b"/><feMerge><feMergeNode in="b"/><feMergeNode in="SourceGraphic"/></feMerge></filter></defs>
<rect width="640" height="360" fill="url(#bg)"/><rect width="640" height="360" fill="url(#r)"/>
<g opacity=".9"><path d="M-13 158 C 202 -29, 485 140, 662 94" stroke="#7c3dff" stroke-opacity="0.24" stroke-width="3" fill="none"/><path d="M-73 107 C 212 285, 354 226, 617 188" stroke="#7c3dff" stroke-opacity="0.24" stroke-width="3" fill="none"/><path d="M-79 94 C 292 55, 489 261, 631 175" stroke="#38d8ff" stroke-opacity="0.20" stroke-width="1.5" fill="none"/><path d="M93 192 C 209 -13, 449 310, 545 205" stroke="#38d8ff" stroke-opacity="0.35" stroke-width="3" fill="none"/><path d="M-34 128 C 176 154, 422 217, 556 214" stroke="#7c3dff" stroke-opacity="0.27" stroke-width="2" fill="none"/><path d="M-17 136 C 186 24, 518 208, 639 141" stroke="#38d8ff" stroke-opacity="0.29" stroke-width="2" fill="none"/></g><g><circle cx="426" cy="105" r="2" fill="#7c3dff" opacity="0.34"/><circle cx="413" cy="95" r="2" fill="#ffffff" opacity="0.18"/><circle cx="529" cy="214" r="1.5" fill="#7c3dff" opacity="0.18"/><circle cx="579" cy="171" r="1.5" fill="#38d8ff" opacity="0.20"/><circle cx="70" cy="81" r="2" fill="#ffffff" opacity="0.31"/><circle cx="336" cy="84" r="2" fill="#ffffff" opacity="0.17"/><circle cx="313" cy="288" r="2" fill="#38d8ff" opacity="0.37"/><circle cx="379" cy="118" r="1" fill="#7c3dff" opacity="0.16"/><circle cx="163" cy="255" r="2" fill="#38d8ff" opacity="0.35"/><circle cx="142" cy="222" r="2" fill="#38d8ff" opacity="0.24"/><circle cx="237" cy="226" r="1.5" fill="#38d8ff" opacity="0.13"/><circle cx="384" cy="206" r="1" fill="#7c3dff" opacity="0.36"/><circle cx="107" cy="70" r="1" fill="#7c3dff" opacity="0.38"/><circle cx="266" cy="133" r="1.5" fill="#38d8ff" opacity="0.23"/><circle cx="353" cy="72" r="1" fill="#38d8ff" opacity="0.22"/><circle cx="93" cy="86" r="1" fill="#7c3dff" opacity="0.17"/><circle cx="231" cy="213" r="1" fill="#38d8ff" opacity="0.12"/><circle cx="526" cy="210" r="2" fill="#7c3dff" opacity="0.32"/><circle cx="163" cy="133" r="2" fill="#38d8ff" opacity="0.15"/><circle cx="389" cy="82" r="1.5" fill="#ffffff" opacity="0.22"/><circle cx="528" cy="167" r="2" fill="#7c3dff" opacity="0.26"/><circle cx="530" cy="204" r="1.5" fill="#38d8ff" opacity="0.37"/><circle cx="239" cy="133" r="2" fill="#ffffff" opacity="0.14"/><circle cx="57" cy="62" r="2" fill="#7c3dff" opacity="0.33"/><circle cx="122" cy="227" r="1.5" fill="#38d8ff" opacity="0.21"/><circle cx="559" cy="231" r="1.5" fill="#ffffff" opacity="0.28"/><circle cx="306" cy="243" r="1.5" fill="#7c3dff" opacity="0.13"/><circle cx="341" cy="286" r="1" fill="#38d8ff" opacity="0.24"/><circle cx="325" cy="188" r="2" fill="#38d8ff" opacity="0.23"/><circle cx="176" cy="253" r="2" fill="#7c3dff" opacity="0.24"/><circle cx="246" cy="220" r="1.5" fill="#ffffff" opacity="0.36"/><circle cx="463" cy="183" r="2" fill="#ffffff" opacity="0.15"/></g>
<g transform="translate(402 44) scale(1.65)" fill="none" stroke="url(#g)" stroke-width="4" stroke-linecap="round" stroke-linejoin="round" opacity=".62" filter="url(#gl)"><path d="M50 31h44v44H50z"/><path d="M58 41h27M58 51h27M58 61h18"/></g>
<g transform="translate(44 42)"><rect width="104" height="104" rx="30" fill="#ffffff" fill-opacity=".08" stroke="#ffffff" stroke-opacity=".14"/><text x="52" y="66" text-anchor="middle" font-family="Inter,Arial,sans-serif" font-size="36" font-weight="800" fill="url(#g)">RT</text></g>
<g opacity=".36" fill="none" stroke="#fff"><circle cx="520" cy="118" r="92"/><circle cx="520" cy="118" r="58"/><circle cx="520" cy="118" r="22"/></g>
<rect y="200" width="640" height="160" fill="url(#fade)" opacity=".0"/>
<rect y="188" width="640" height="172" fill="#02040d" opacity=".58"/>
<text x="44" y="264" font-family="Inter,Arial,sans-serif" font-size="38" font-weight="850" fill="#fff" letter-spacing="-.8">RT</text>
<text x="44" y="304" font-family="Inter,Arial,sans-serif" font-size="18" font-weight="650" fill="#38d8ff">Rusland · News</text>
<path d="M44 326h200" stroke="url(#g)" stroke-width="4" stroke-linecap="round" opacity=".88"/>
</svg>