<svg data-art-category="documentary" xmlns="http://www.w3.org/2000/svg" viewBox="0 0 640 360" preserveAspectRatio="xMidYMid slice">
<defs><linearGradient id="bg" x1="0" y1="0" x2="1" y2="1"><stop stop-color="#1c170c"/><stop offset=".52" stop-color="#0b1530"/><stop offset="1" stop-color="#02040d"/></linearGradient><radialGradient id="r" cx="78%" cy="22%" r="70%"><stop stop-color="#f7c873" stop-opacity=".52"/><stop offset=".45" stop-color="#5ecbff" stop-opacity=".18"/><stop offset="1" stop-color="#000" stop-opacity="0"/></radialGradient><linearGradient id="g" x1="0" y1="0" x2="1" y2="0"><stop stop-color="#f7c873"/><stop offset="1" stop-color="#5ecbff"/></linearGradient><filter id="gl"><feGaussianBlur stdDeviation="5" result="b"/><feMerge><feMergeNode in="b"/><feMergeNode in="SourceGraphic"/></feMerge></filter></defs>
<rect width="640" height="360" fill="url(#bg)"/><rect width="640" height="360" fill="url(#r)"/>
<g opacity=".9"><path d="M-77 231 C 191 230, 351 204, 634 173" stroke="#5ecbff" stroke-opacity="0.23" stroke-width="2" fill="none"/><path d="M-11 138 C 171 25, 458 336, 547 241" stroke="#f7c873" stroke-opacity="0.27" stroke-width="3" fill="none"/><path d="M-5 239 C 293 18, 395 116, 704 221" stroke="#5ecbff" stroke-opacity="0.26" stroke-width="1.5" fill="none"/><path d="M75 229 C 176 71, 443 145, 580 181" stroke="#5ecbff" stroke-opacity="0.18" stroke-width="3" fill="none"/><path d="M153 174 C 286 254, 491 122, 533 276" stroke="#5ecbff" stroke-opacity="0.30" stroke-width="2" fill="none"/><path d="M72 163 C 288 -24, 351 352, 613 180" stroke="#5ecbff" stroke-opacity="0.30" stroke-width="2" fill="none"/></g><g><circle cx="82" cy="249" r="1.5" fill="#f7c873" opacity="0.36"/><circle cx="142" cy="159" r="1" fill="#ffffff" opacity="0.32"/><circle cx="375" cy="287" r="1.5" fill="#ffffff" opacity="0.36"/><circle cx="83" cy="179" r="1" fill="#f7c873" opacity="0.18"/><circle cx="233" cy="156" r="1.5" fill="#5ecbff" opacity="0.25"/><circle cx="239" cy="136" r="2" fill="#f7c873" opacity="0.14"/><circle cx="475" cy="200" r="1.5" fill="#5ecbff" opacity="0.15"/><circle cx="336" cy="127" r="1" fill="#f7c873" opacity="0.33"/><circle cx="42" cy="240" r="1" fill="#5ecbff" opacity="0.35"/><circle cx="250" cy="256" r="2" fill="#5ecbff" opacity="0.37"/><circle cx="268" cy="190" r="1" fill="#5ecbff" opacity="0.23"/><circle cx="456" cy="233" r="1" fill="#5ecbff" opacity="0.12"/><circle cx="418" cy="256" r="2" fill="#5ecbff" opacity="0.37"/><circle cx="202" cy="239" r="2" fill="#f7c873" opacity="0.20"/><circle cx="563" cy="164" r="1" fill="#5ecbff" opacity="0.15"/><circle cx="548" cy="119" r="1" fill="#ffffff" opacity="0.18"/><circle cx="461" cy="126" r="2" fill="#f7c873" opacity="0.19"/><circle cx="148" cy="98" r="1" fill="#5ecbff" opacity="0.24"/><circle cx="118" cy="106" r="1.5" fill="#f7c873" opacity="0.35"/><circle cx="502" cy="285" r="2" fill="#f7c873" opacity="0.18"/><circle cx="112" cy="242" r="1" fill="#ffffff" opacity="0.25"/><circle cx="69" cy="58" r="2" fill="#5ecbff" opacity="0.30"/><circle cx="267" cy="231" r="1" fill="#5ecbff" opacity="0.27"/><circle cx="337" cy="281" r="1" fill="#f7c873" opacity="0.26"/><circle cx="469" cy="50" r="2" fill="#f7c873" opacity="0.34"/><circle cx="357" cy="171" r="1" fill="#ffffff" opacity="0.31"/><circle cx="356" cy="58" r="1.5" fill="#ffffff" opacity="0.25"/><circle cx="60" cy="235" r="1" fill="#f7c873" opacity="0.26"/><circle cx="239" cy="149" r="2" fill="#f7c873" opacity="0.30"/><circle cx="422" cy="231" r="1.5" fill="#ffffff" opacity="0.18"/><circle cx="316" cy="288" r="1" fill="#5ecbff" opacity="0.32"/><circle cx="85" cy="127" r="1" fill="#5ecbff" opacity="0.35"/></g>
<g transform="translate(402 44) scale(1.65)" fill="none" stroke="url(#g)" stroke-width="4" stroke-linecap="round" stroke-linejoin="round" opacity=".62" filter="url(#gl)"><path d="M48 36h48v36H48z"/><path d="M58 36l8 36M76 36l8 36"/></g>
<g transform="translate(44 42)"><rect width="104" height="104" rx="30" fill="#ffffff" fill-opacity=".08" stroke="#ffffff" stroke-opacity=".14"/><text x="52" y="66" text-anchor="middle" font-family="Inter,Arial,sans-serif" font-size="36" font-weight="800" fill="url(#g)">SC</text></g>
<g opacity=".36" fill="none" stroke="#fff"><circle cx="520" cy="118" r="92"/><circle cx="520" cy="118" r="58"/><circle cx="520" cy="118" r="22"/></g>
<rect y="200" width="640" height="160" fill="url(#fade)" opacity=".0"/>
<rect y="188" width="640" height="172" fill="#02040d" opacity=".58"/>
<text x="44" y="264" font-family="Inter,Arial,sans-serif" font-size="38" font-weight="850" fill="#fff" letter-spacing="-.8">Smithsonian Channel</text>
<text x="44" y="304" font-family="Inter,Arial,sans-serif" font-size="18" font-weight="650" fill="#f7c873">Verenigde Staten · Documentary</text>
<path d="M44 326h200" stroke="url(#g)" stroke-width="4" stroke-linecap="round" opacity=".88"/>
</svg>