<svg data-art-category="world" xmlns="http://www.w3.org/2000/svg" viewBox="0 0 640 360" preserveAspectRatio="xMidYMid slice">
<defs><linearGradient id="bg" x1="0" y1="0" x2="1" y2="1"><stop stop-color="#07152b"/><stop offset=".52" stop-color="#0b1530"/><stop offset="1" stop-color="#02040d"/></linearGradient><radialGradient id="r" cx="78%" cy="22%" r="70%"><stop stop-color="#38d8ff" stop-opacity=".52"/><stop offset=".45" stop-color="#7c3dff" stop-opacity=".18"/><stop offset="1" stop-color="#000" stop-opacity="0"/></radialGradient><linearGradient id="g" x1="0" y1="0" x2="1" y2="0"><stop stop-color="#38d8ff"/><stop offset="1" stop-color="#7c3dff"/></linearGradient><filter id="gl"><feGaussianBlur stdDeviation="5" result="b"/><feMerge><feMergeNode in="b"/><feMergeNode in="SourceGraphic"/></feMerge></filter></defs>
<rect width="640" height="360" fill="url(#bg)"/><rect width="640" height="360" fill="url(#r)"/>
<g opacity=".9"><path d="M123 193 C 161 330, 367 1, 670 254" stroke="#7c3dff" stroke-opacity="0.33" stroke-width="1.5" fill="none"/><path d="M-51 143 C 237 306, 347 72, 643 152" stroke="#38d8ff" stroke-opacity="0.37" stroke-width="1.5" fill="none"/><path d="M101 154 C 185 100, 339 333, 647 113" stroke="#38d8ff" stroke-opacity="0.19" stroke-width="1.5" fill="none"/><path d="M-77 247 C 280 202, 364 349, 706 153" stroke="#7c3dff" stroke-opacity="0.24" stroke-width="3" fill="none"/><path d="M104 196 C 204 312, 462 156, 645 232" stroke="#7c3dff" stroke-opacity="0.26" stroke-width="3" fill="none"/><path d="M150 136 C 161 323, 489 52, 591 287" stroke="#38d8ff" stroke-opacity="0.35" stroke-width="1.5" fill="none"/></g><g><circle cx="339" cy="56" r="2" fill="#38d8ff" opacity="0.14"/><circle cx="504" cy="203" r="1.5" fill="#ffffff" opacity="0.20"/><circle cx="193" cy="104" r="1" fill="#38d8ff" opacity="0.22"/><circle cx="157" cy="128" r="1" fill="#ffffff" opacity="0.32"/><circle cx="143" cy="212" r="1" fill="#7c3dff" opacity="0.37"/><circle cx="478" cy="99" r="1" fill="#ffffff" opacity="0.17"/><circle cx="427" cy="202" r="1" fill="#38d8ff" opacity="0.17"/><circle cx="496" cy="103" r="1" fill="#7c3dff" opacity="0.29"/><circle cx="564" cy="66" r="2" fill="#ffffff" opacity="0.27"/><circle cx="299" cy="170" r="1.5" fill="#7c3dff" opacity="0.31"/><circle cx="413" cy="241" r="1.5" fill="#38d8ff" opacity="0.27"/><circle cx="257" cy="217" r="2" fill="#7c3dff" opacity="0.17"/><circle cx="538" cy="95" r="1" fill="#7c3dff" opacity="0.33"/><circle cx="180" cy="139" r="2" fill="#ffffff" opacity="0.30"/><circle cx="556" cy="215" r="2" fill="#ffffff" opacity="0.28"/><circle cx="434" cy="146" r="2" fill="#38d8ff" opacity="0.16"/><circle cx="557" cy="214" r="1" fill="#38d8ff" opacity="0.30"/><circle cx="541" cy="217" r="2" fill="#38d8ff" opacity="0.17"/><circle cx="416" cy="69" r="2" fill="#38d8ff" opacity="0.32"/><circle cx="468" cy="130" r="1.5" fill="#ffffff" opacity="0.18"/><circle cx="332" cy="183" r="2" fill="#ffffff" opacity="0.31"/><circle cx="44" cy="265" r="1.5" fill="#38d8ff" opacity="0.19"/><circle cx="238" cy="128" r="1" fill="#38d8ff" opacity="0.26"/><circle cx="312" cy="73" r="2" fill="#38d8ff" opacity="0.16"/><circle cx="188" cy="267" r="2" fill="#ffffff" opacity="0.29"/><circle cx="49" cy="117" r="1" fill="#38d8ff" opacity="0.27"/><circle cx="134" cy="269" r="2" fill="#7c3dff" opacity="0.14"/><circle cx="241" cy="208" r="2" fill="#38d8ff" opacity="0.24"/><circle cx="471" cy="66" r="1" fill="#ffffff" opacity="0.32"/><circle cx="509" cy="286" r="1" fill="#38d8ff" opacity="0.36"/><circle cx="498" cy="142" r="1.5" fill="#ffffff" opacity="0.20"/><circle cx="243" cy="106" r="1.5" fill="#ffffff" opacity="0.22"/></g>
<g transform="translate(402 44) scale(1.65)" fill="none" stroke="url(#g)" stroke-width="4" stroke-linecap="round" stroke-linejoin="round" opacity=".62" filter="url(#gl)"><path d="M50 31h44v44H50z"/><path d="M58 41h27M58 51h27M58 61h18"/></g>
<g transform="translate(44 42)"><rect width="104" height="104" rx="30" fill="#ffffff" fill-opacity=".08" stroke="#ffffff" stroke-opacity=".14"/><text x="52" y="66" text-anchor="middle" font-family="Inter,Arial,sans-serif" font-size="36" font-weight="800" fill="url(#g)">ST</text></g>
<g opacity=".36" fill="none" stroke="#fff"><circle cx="520" cy="118" r="92"/><circle cx="520" cy="118" r="58"/><circle cx="520" cy="118" r="22"/></g>
<rect y="200" width="640" height="160" fill="url(#fade)" opacity=".0"/>
<rect y="188" width="640" height="172" fill="#02040d" opacity=".58"/>
<text x="44" y="264" font-family="Inter,Arial,sans-serif" font-size="38" font-weight="850" fill="#fff" letter-spacing="-.8">SWEET.TV</text>
<text x="44" y="304" font-family="Inter,Arial,sans-serif" font-size="18" font-weight="650" fill="#38d8ff">Oekraïne · News</text>
<path d="M44 326h200" stroke="url(#g)" stroke-width="4" stroke-linecap="round" opacity=".88"/>
</svg>