<svg data-art-category="public" xmlns="http://www.w3.org/2000/svg" viewBox="0 0 640 360" preserveAspectRatio="xMidYMid slice">
<defs><linearGradient id="bg" x1="0" y1="0" x2="1" y2="1"><stop stop-color="#051b22"/><stop offset=".52" stop-color="#0b1530"/><stop offset="1" stop-color="#02040d"/></linearGradient><radialGradient id="r" cx="78%" cy="22%" r="70%"><stop stop-color="#72f0ff" stop-opacity=".52"/><stop offset=".45" stop-color="#8dffb2" stop-opacity=".18"/><stop offset="1" stop-color="#000" stop-opacity="0"/></radialGradient><linearGradient id="g" x1="0" y1="0" x2="1" y2="0"><stop stop-color="#72f0ff"/><stop offset="1" stop-color="#8dffb2"/></linearGradient><filter id="gl"><feGaussianBlur stdDeviation="5" result="b"/><feMerge><feMergeNode in="b"/><feMergeNode in="SourceGraphic"/></feMerge></filter></defs>
<rect width="640" height="360" fill="url(#bg)"/><rect width="640" height="360" fill="url(#r)"/>
<g opacity=".9"><path d="M-7 212 C 272 147, 398 346, 626 140" stroke="#72f0ff" stroke-opacity="0.33" stroke-width="3" fill="none"/><path d="M56 119 C 239 265, 457 215, 644 247" stroke="#8dffb2" stroke-opacity="0.23" stroke-width="3" fill="none"/><path d="M-9 165 C 240 47, 402 248, 656 172" stroke="#8dffb2" stroke-opacity="0.33" stroke-width="3" fill="none"/><path d="M16 236 C 175 146, 415 267, 622 279" stroke="#72f0ff" stroke-opacity="0.29" stroke-width="3" fill="none"/><path d="M65 117 C 271 307, 419 322, 537 168" stroke="#72f0ff" stroke-opacity="0.37" stroke-width="2" fill="none"/><path d="M157 91 C 227 296, 498 2, 581 164" stroke="#72f0ff" stroke-opacity="0.30" stroke-width="2" fill="none"/></g><g><circle cx="341" cy="77" r="1" fill="#72f0ff" opacity="0.37"/><circle cx="128" cy="152" r="2" fill="#8dffb2" opacity="0.16"/><circle cx="215" cy="169" r="2" fill="#72f0ff" opacity="0.18"/><circle cx="299" cy="99" r="1" fill="#8dffb2" opacity="0.25"/><circle cx="382" cy="277" r="1" fill="#72f0ff" opacity="0.31"/><circle cx="562" cy="76" r="2" fill="#72f0ff" opacity="0.20"/><circle cx="299" cy="278" r="1" fill="#72f0ff" opacity="0.28"/><circle cx="191" cy="156" r="1.5" fill="#8dffb2" opacity="0.29"/><circle cx="479" cy="267" r="1" fill="#72f0ff" opacity="0.15"/><circle cx="451" cy="266" r="2" fill="#8dffb2" opacity="0.19"/><circle cx="510" cy="292" r="2" fill="#8dffb2" opacity="0.21"/><circle cx="127" cy="76" r="2" fill="#8dffb2" opacity="0.20"/><circle cx="537" cy="72" r="2" fill="#ffffff" opacity="0.19"/><circle cx="381" cy="100" r="1.5" fill="#ffffff" opacity="0.25"/><circle cx="187" cy="290" r="1" fill="#72f0ff" opacity="0.35"/><circle cx="84" cy="90" r="1" fill="#ffffff" opacity="0.33"/><circle cx="381" cy="53" r="1" fill="#72f0ff" opacity="0.17"/><circle cx="261" cy="140" r="1.5" fill="#ffffff" opacity="0.18"/><circle cx="236" cy="180" r="1.5" fill="#8dffb2" opacity="0.30"/><circle cx="324" cy="52" r="1.5" fill="#72f0ff" opacity="0.30"/><circle cx="578" cy="151" r="2" fill="#8dffb2" opacity="0.35"/><circle cx="325" cy="248" r="1" fill="#ffffff" opacity="0.23"/><circle cx="292" cy="126" r="1.5" fill="#8dffb2" opacity="0.25"/><circle cx="424" cy="274" r="2" fill="#8dffb2" opacity="0.17"/><circle cx="105" cy="189" r="2" fill="#ffffff" opacity="0.13"/><circle cx="562" cy="242" r="1" fill="#72f0ff" opacity="0.21"/><circle cx="323" cy="173" r="2" fill="#72f0ff" opacity="0.28"/><circle cx="566" cy="129" r="1" fill="#8dffb2" opacity="0.20"/><circle cx="302" cy="258" r="2" fill="#8dffb2" opacity="0.20"/><circle cx="538" cy="103" r="1.5" fill="#8dffb2" opacity="0.37"/><circle cx="447" cy="288" r="1" fill="#8dffb2" opacity="0.15"/><circle cx="393" cy="101" r="1" fill="#ffffff" opacity="0.27"/></g>
<g transform="translate(402 44) scale(1.65)" fill="none" stroke="url(#g)" stroke-width="4" stroke-linecap="round" stroke-linejoin="round" opacity=".62" filter="url(#gl)"><path d="M44 72h56M50 66h44M54 38l18-10 18 10M58 42v24M72 42v24M86 42v24"/></g>
<g transform="translate(44 42)"><rect width="104" height="104" rx="30" fill="#ffffff" fill-opacity=".08" stroke="#ffffff" stroke-opacity=".14"/><text x="52" y="66" text-anchor="middle" font-family="Inter,Arial,sans-serif" font-size="36" font-weight="800" fill="url(#g)">TP</text></g>
<g opacity=".36" fill="none" stroke="#fff"><circle cx="520" cy="118" r="92"/><circle cx="520" cy="118" r="58"/><circle cx="520" cy="118" r="22"/></g>
<rect y="200" width="640" height="160" fill="url(#fade)" opacity=".0"/>
<rect y="188" width="640" height="172" fill="#02040d" opacity=".58"/>
<text x="44" y="264" font-family="Inter,Arial,sans-serif" font-size="38" font-weight="850" fill="#fff" letter-spacing="-.8">TG4 Player</text>
<text x="44" y="304" font-family="Inter,Arial,sans-serif" font-size="18" font-weight="650" fill="#72f0ff">Ierland · Public</text>
<path d="M44 326h200" stroke="url(#g)" stroke-width="4" stroke-linecap="round" opacity=".88"/>
</svg>