<svg data-art-category="news" xmlns="http://www.w3.org/2000/svg" viewBox="0 0 640 360" preserveAspectRatio="xMidYMid slice">
<defs><linearGradient id="bg" x1="0" y1="0" x2="1" y2="1"><stop stop-color="#07152b"/><stop offset=".52" stop-color="#0b1530"/><stop offset="1" stop-color="#02040d"/></linearGradient><radialGradient id="r" cx="78%" cy="22%" r="70%"><stop stop-color="#38d8ff" stop-opacity=".52"/><stop offset=".45" stop-color="#7c3dff" stop-opacity=".18"/><stop offset="1" stop-color="#000" stop-opacity="0"/></radialGradient><linearGradient id="g" x1="0" y1="0" x2="1" y2="0"><stop stop-color="#38d8ff"/><stop offset="1" stop-color="#7c3dff"/></linearGradient><filter id="gl"><feGaussianBlur stdDeviation="5" result="b"/><feMerge><feMergeNode in="b"/><feMergeNode in="SourceGraphic"/></feMerge></filter></defs>
<rect width="640" height="360" fill="url(#bg)"/><rect width="640" height="360" fill="url(#r)"/>
<g opacity=".9"><path d="M-28 186 C 218 348, 360 299, 598 158" stroke="#7c3dff" stroke-opacity="0.27" stroke-width="3" fill="none"/><path d="M3 127 C 218 351, 460 221, 550 238" stroke="#7c3dff" stroke-opacity="0.17" stroke-width="2" fill="none"/><path d="M149 131 C 210 90, 407 86, 561 63" stroke="#38d8ff" stroke-opacity="0.26" stroke-width="1.5" fill="none"/><path d="M113 202 C 217 28, 373 101, 684 287" stroke="#38d8ff" stroke-opacity="0.17" stroke-width="2" fill="none"/><path d="M-23 232 C 253 166, 505 96, 708 183" stroke="#38d8ff" stroke-opacity="0.30" stroke-width="2" fill="none"/><path d="M20 94 C 284 253, 492 103, 552 212" stroke="#38d8ff" stroke-opacity="0.24" stroke-width="1.5" fill="none"/></g><g><circle cx="341" cy="274" r="1" fill="#7c3dff" opacity="0.17"/><circle cx="523" cy="195" r="2" fill="#38d8ff" opacity="0.19"/><circle cx="358" cy="154" r="1" fill="#7c3dff" opacity="0.36"/><circle cx="224" cy="217" r="2" fill="#7c3dff" opacity="0.15"/><circle cx="313" cy="238" r="1" fill="#ffffff" opacity="0.21"/><circle cx="265" cy="86" r="2" fill="#ffffff" opacity="0.19"/><circle cx="217" cy="72" r="2" fill="#7c3dff" opacity="0.34"/><circle cx="367" cy="192" r="1" fill="#7c3dff" opacity="0.23"/><circle cx="302" cy="205" r="1" fill="#7c3dff" opacity="0.14"/><circle cx="237" cy="176" r="1" fill="#ffffff" opacity="0.26"/><circle cx="190" cy="268" r="2" fill="#ffffff" opacity="0.15"/><circle cx="263" cy="278" r="2" fill="#ffffff" opacity="0.22"/><circle cx="419" cy="91" r="1" fill="#7c3dff" opacity="0.30"/><circle cx="305" cy="235" r="2" fill="#7c3dff" opacity="0.30"/><circle cx="359" cy="69" r="2" fill="#ffffff" opacity="0.32"/><circle cx="470" cy="72" r="1" fill="#7c3dff" opacity="0.17"/><circle cx="514" cy="203" r="1.5" fill="#ffffff" opacity="0.34"/><circle cx="481" cy="96" r="1" fill="#38d8ff" opacity="0.25"/><circle cx="496" cy="104" r="2" fill="#ffffff" opacity="0.37"/><circle cx="469" cy="146" r="1.5" fill="#7c3dff" opacity="0.17"/><circle cx="262" cy="249" r="2" fill="#ffffff" opacity="0.31"/><circle cx="257" cy="248" r="2" fill="#ffffff" opacity="0.29"/><circle cx="424" cy="277" r="1.5" fill="#ffffff" opacity="0.29"/><circle cx="170" cy="280" r="1.5" fill="#ffffff" opacity="0.32"/><circle cx="180" cy="265" r="1.5" fill="#7c3dff" opacity="0.37"/><circle cx="70" cy="235" r="1" fill="#7c3dff" opacity="0.26"/><circle cx="341" cy="255" r="1" fill="#ffffff" opacity="0.26"/><circle cx="59" cy="104" r="2" fill="#38d8ff" opacity="0.30"/><circle cx="63" cy="245" r="2" fill="#38d8ff" opacity="0.22"/><circle cx="412" cy="240" r="1" fill="#7c3dff" opacity="0.21"/><circle cx="154" cy="225" r="2" fill="#ffffff" opacity="0.18"/><circle cx="210" cy="181" r="1" fill="#7c3dff" opacity="0.23"/></g>
<g transform="translate(402 44) scale(1.65)" fill="none" stroke="url(#g)" stroke-width="4" stroke-linecap="round" stroke-linejoin="round" opacity=".62" filter="url(#gl)"><path d="M50 31h44v44H50z"/><path d="M58 41h27M58 51h27M58 61h18"/></g>
<g transform="translate(44 42)"><rect width="104" height="104" rx="30" fill="#ffffff" fill-opacity=".08" stroke="#ffffff" stroke-opacity=".14"/><text x="52" y="66" text-anchor="middle" font-family="Inter,Arial,sans-serif" font-size="36" font-weight="800" fill="url(#g)">TP</text></g>
<g opacity=".36" fill="none" stroke="#fff"><circle cx="520" cy="118" r="92"/><circle cx="520" cy="118" r="58"/><circle cx="520" cy="118" r="22"/></g>
<rect y="200" width="640" height="160" fill="url(#fade)" opacity=".0"/>
<rect y="188" width="640" height="172" fill="#02040d" opacity=".58"/>
<text x="44" y="264" font-family="Inter,Arial,sans-serif" font-size="38" font-weight="850" fill="#fff" letter-spacing="-.8">TV4 Play</text>
<text x="44" y="304" font-family="Inter,Arial,sans-serif" font-size="18" font-weight="650" fill="#38d8ff">Zweden · News</text>
<path d="M44 326h200" stroke="url(#g)" stroke-width="4" stroke-linecap="round" opacity=".88"/>
</svg>