<svg data-art-category="documentary" xmlns="http://www.w3.org/2000/svg" viewBox="0 0 640 360" preserveAspectRatio="xMidYMid slice">
<defs><linearGradient id="bg" x1="0" y1="0" x2="1" y2="1"><stop stop-color="#1c170c"/><stop offset=".52" stop-color="#0b1530"/><stop offset="1" stop-color="#02040d"/></linearGradient><radialGradient id="r" cx="78%" cy="22%" r="70%"><stop stop-color="#f7c873" stop-opacity=".52"/><stop offset=".45" stop-color="#5ecbff" stop-opacity=".18"/><stop offset="1" stop-color="#000" stop-opacity="0"/></radialGradient><linearGradient id="g" x1="0" y1="0" x2="1" y2="0"><stop stop-color="#f7c873"/><stop offset="1" stop-color="#5ecbff"/></linearGradient><filter id="gl"><feGaussianBlur stdDeviation="5" result="b"/><feMerge><feMergeNode in="b"/><feMergeNode in="SourceGraphic"/></feMerge></filter></defs>
<rect width="640" height="360" fill="url(#bg)"/><rect width="640" height="360" fill="url(#r)"/>
<g opacity=".9"><path d="M83 218 C 234 330, 359 72, 720 255" stroke="#f7c873" stroke-opacity="0.24" stroke-width="1.5" fill="none"/><path d="M145 200 C 200 -6, 343 111, 670 88" stroke="#f7c873" stroke-opacity="0.32" stroke-width="1.5" fill="none"/><path d="M-46 173 C 183 43, 438 339, 590 86" stroke="#5ecbff" stroke-opacity="0.26" stroke-width="3" fill="none"/><path d="M140 214 C 272 296, 468 63, 532 286" stroke="#f7c873" stroke-opacity="0.22" stroke-width="2" fill="none"/><path d="M40 208 C 197 75, 348 343, 708 260" stroke="#5ecbff" stroke-opacity="0.25" stroke-width="2" fill="none"/><path d="M55 192 C 193 31, 509 75, 625 196" stroke="#5ecbff" stroke-opacity="0.17" stroke-width="3" fill="none"/></g><g><circle cx="168" cy="206" r="1" fill="#5ecbff" opacity="0.21"/><circle cx="435" cy="76" r="1" fill="#ffffff" opacity="0.26"/><circle cx="551" cy="284" r="2" fill="#5ecbff" opacity="0.29"/><circle cx="376" cy="54" r="1.5" fill="#ffffff" opacity="0.12"/><circle cx="348" cy="48" r="1.5" fill="#f7c873" opacity="0.34"/><circle cx="252" cy="170" r="1.5" fill="#5ecbff" opacity="0.30"/><circle cx="304" cy="244" r="2" fill="#f7c873" opacity="0.18"/><circle cx="530" cy="269" r="1" fill="#ffffff" opacity="0.28"/><circle cx="526" cy="276" r="1" fill="#ffffff" opacity="0.17"/><circle cx="556" cy="268" r="2" fill="#f7c873" opacity="0.29"/><circle cx="356" cy="289" r="1.5" fill="#ffffff" opacity="0.12"/><circle cx="178" cy="51" r="1" fill="#f7c873" opacity="0.21"/><circle cx="493" cy="77" r="2" fill="#f7c873" opacity="0.19"/><circle cx="479" cy="180" r="2" fill="#ffffff" opacity="0.32"/><circle cx="161" cy="67" r="1" fill="#5ecbff" opacity="0.22"/><circle cx="110" cy="271" r="1.5" fill="#5ecbff" opacity="0.21"/><circle cx="511" cy="53" r="1.5" fill="#f7c873" opacity="0.22"/><circle cx="448" cy="141" r="1.5" fill="#5ecbff" opacity="0.26"/><circle cx="457" cy="263" r="1" fill="#5ecbff" opacity="0.22"/><circle cx="268" cy="256" r="1" fill="#f7c873" opacity="0.15"/><circle cx="83" cy="290" r="1.5" fill="#ffffff" opacity="0.23"/><circle cx="103" cy="138" r="2" fill="#f7c873" opacity="0.32"/><circle cx="464" cy="246" r="1.5" fill="#f7c873" opacity="0.30"/><circle cx="176" cy="212" r="2" fill="#5ecbff" opacity="0.23"/><circle cx="463" cy="271" r="2" fill="#ffffff" opacity="0.30"/><circle cx="244" cy="294" r="1" fill="#f7c873" opacity="0.36"/><circle cx="274" cy="171" r="1" fill="#ffffff" opacity="0.36"/><circle cx="196" cy="109" r="2" fill="#ffffff" opacity="0.37"/><circle cx="550" cy="215" r="2" fill="#ffffff" opacity="0.14"/><circle cx="538" cy="171" r="1.5" fill="#ffffff" opacity="0.26"/><circle cx="72" cy="108" r="1" fill="#f7c873" opacity="0.25"/><circle cx="554" cy="284" r="1" fill="#ffffff" opacity="0.19"/></g>
<g transform="translate(402 44) scale(1.65)" fill="none" stroke="url(#g)" stroke-width="4" stroke-linecap="round" stroke-linejoin="round" opacity=".62" filter="url(#gl)"><path d="M48 36h48v36H48z"/><path d="M58 36l8 36M76 36l8 36"/></g>
<g transform="translate(44 42)"><rect width="104" height="104" rx="30" fill="#ffffff" fill-opacity=".08" stroke="#ffffff" stroke-opacity=".14"/><text x="52" y="66" text-anchor="middle" font-family="Inter,Arial,sans-serif" font-size="36" font-weight="800" fill="url(#g)">UP</text></g>
<g opacity=".36" fill="none" stroke="#fff"><circle cx="520" cy="118" r="92"/><circle cx="520" cy="118" r="58"/><circle cx="520" cy="118" r="22"/></g>
<rect y="200" width="640" height="160" fill="url(#fade)" opacity=".0"/>
<rect y="188" width="640" height="172" fill="#02040d" opacity=".58"/>
<text x="44" y="264" font-family="Inter,Arial,sans-serif" font-size="38" font-weight="850" fill="#fff" letter-spacing="-.8">UR Play</text>
<text x="44" y="304" font-family="Inter,Arial,sans-serif" font-size="18" font-weight="650" fill="#f7c873">Zweden · Documentary</text>
<path d="M44 326h200" stroke="url(#g)" stroke-width="4" stroke-linecap="round" opacity=".88"/>
</svg>