<svg data-art-category="news" xmlns="http://www.w3.org/2000/svg" viewBox="0 0 640 360" preserveAspectRatio="xMidYMid slice">
<defs><linearGradient id="bg" x1="0" y1="0" x2="1" y2="1"><stop stop-color="#1c170c"/><stop offset=".52" stop-color="#0b1530"/><stop offset="1" stop-color="#02040d"/></linearGradient><radialGradient id="r" cx="78%" cy="22%" r="70%"><stop stop-color="#f7c873" stop-opacity=".52"/><stop offset=".45" stop-color="#5ecbff" stop-opacity=".18"/><stop offset="1" stop-color="#000" stop-opacity="0"/></radialGradient><linearGradient id="g" x1="0" y1="0" x2="1" y2="0"><stop stop-color="#f7c873"/><stop offset="1" stop-color="#5ecbff"/></linearGradient><filter id="gl"><feGaussianBlur stdDeviation="5" result="b"/><feMerge><feMergeNode in="b"/><feMergeNode in="SourceGraphic"/></feMerge></filter></defs>
<rect width="640" height="360" fill="url(#bg)"/><rect width="640" height="360" fill="url(#r)"/>
<g opacity=".9"><path d="M61 198 C 262 10, 466 165, 704 171" stroke="#f7c873" stroke-opacity="0.37" stroke-width="2" fill="none"/><path d="M-60 106 C 173 65, 486 322, 582 184" stroke="#f7c873" stroke-opacity="0.32" stroke-width="2" fill="none"/><path d="M91 92 C 294 77, 489 136, 525 279" stroke="#f7c873" stroke-opacity="0.22" stroke-width="1.5" fill="none"/><path d="M-43 93 C 278 133, 491 43, 557 113" stroke="#5ecbff" stroke-opacity="0.27" stroke-width="1.5" fill="none"/><path d="M8 247 C 270 226, 401 61, 679 79" stroke="#5ecbff" stroke-opacity="0.35" stroke-width="2" fill="none"/><path d="M119 166 C 234 50, 394 62, 617 289" stroke="#f7c873" stroke-opacity="0.19" stroke-width="3" fill="none"/></g><g><circle cx="178" cy="117" r="1.5" fill="#5ecbff" opacity="0.30"/><circle cx="61" cy="271" r="1" fill="#f7c873" opacity="0.34"/><circle cx="226" cy="89" r="1" fill="#f7c873" opacity="0.27"/><circle cx="506" cy="266" r="2" fill="#ffffff" opacity="0.19"/><circle cx="489" cy="187" r="1" fill="#f7c873" opacity="0.35"/><circle cx="565" cy="143" r="2" fill="#f7c873" opacity="0.33"/><circle cx="313" cy="82" r="2" fill="#f7c873" opacity="0.13"/><circle cx="40" cy="196" r="1" fill="#ffffff" opacity="0.33"/><circle cx="547" cy="146" r="2" fill="#f7c873" opacity="0.28"/><circle cx="104" cy="87" r="2" fill="#f7c873" opacity="0.31"/><circle cx="340" cy="189" r="1.5" fill="#ffffff" opacity="0.35"/><circle cx="357" cy="198" r="1.5" fill="#f7c873" opacity="0.25"/><circle cx="547" cy="277" r="1" fill="#5ecbff" opacity="0.20"/><circle cx="559" cy="87" r="1.5" fill="#5ecbff" opacity="0.26"/><circle cx="555" cy="231" r="1.5" fill="#f7c873" opacity="0.31"/><circle cx="328" cy="148" r="1" fill="#ffffff" opacity="0.36"/><circle cx="404" cy="265" r="1" fill="#5ecbff" opacity="0.17"/><circle cx="192" cy="286" r="1.5" fill="#ffffff" opacity="0.35"/><circle cx="421" cy="164" r="2" fill="#f7c873" opacity="0.27"/><circle cx="198" cy="51" r="2" fill="#f7c873" opacity="0.21"/><circle cx="88" cy="238" r="2" fill="#5ecbff" opacity="0.25"/><circle cx="40" cy="243" r="1.5" fill="#5ecbff" opacity="0.14"/><circle cx="129" cy="192" r="2" fill="#f7c873" opacity="0.31"/><circle cx="179" cy="262" r="1" fill="#f7c873" opacity="0.27"/><circle cx="271" cy="128" r="2" fill="#ffffff" opacity="0.18"/><circle cx="471" cy="186" r="1" fill="#f7c873" opacity="0.20"/><circle cx="526" cy="182" r="1" fill="#ffffff" opacity="0.21"/><circle cx="290" cy="141" r="2" fill="#ffffff" opacity="0.13"/><circle cx="405" cy="246" r="1" fill="#f7c873" opacity="0.23"/><circle cx="405" cy="148" r="1" fill="#5ecbff" opacity="0.26"/><circle cx="501" cy="67" r="1.5" fill="#ffffff" opacity="0.26"/><circle cx="464" cy="257" r="1.5" fill="#ffffff" opacity="0.37"/></g>
<g transform="translate(402 44) scale(1.65)" fill="none" stroke="url(#g)" stroke-width="4" stroke-linecap="round" stroke-linejoin="round" opacity=".62" filter="url(#gl)"><path d="M48 36h48v36H48z"/><path d="M58 36l8 36M76 36l8 36"/></g>
<g transform="translate(44 42)"><rect width="104" height="104" rx="30" fill="#ffffff" fill-opacity=".08" stroke="#ffffff" stroke-opacity=".14"/><text x="52" y="66" text-anchor="middle" font-family="Inter,Arial,sans-serif" font-size="36" font-weight="800" fill="url(#g)">ZM</text></g>
<g opacity=".36" fill="none" stroke="#fff"><circle cx="520" cy="118" r="92"/><circle cx="520" cy="118" r="58"/><circle cx="520" cy="118" r="22"/></g>
<rect y="200" width="640" height="160" fill="url(#fade)" opacity=".0"/>
<rect y="188" width="640" height="172" fill="#02040d" opacity=".58"/>
<text x="44" y="264" font-family="Inter,Arial,sans-serif" font-size="38" font-weight="850" fill="#fff" letter-spacing="-.8">ZDF Mediathek</text>
<text x="44" y="304" font-family="Inter,Arial,sans-serif" font-size="18" font-weight="650" fill="#f7c873">Duitsland · Documentary</text>
<path d="M44 326h200" stroke="url(#g)" stroke-width="4" stroke-linecap="round" opacity=".88"/>
</svg>